<?xml version="1.0" encoding="UTF-8" standalone="no"?>
<!-- Uploaded to: SVG Repo, www.svgrepo.com, Generator: SVG Repo Mixer Tools -->

<svg
   fill="#000000"
   height="48"
   width="48"
   version="1.1"
   id="Layer_1"
   viewBox="-143 145 30.72 30.72"
   xml:space="preserve"
   xmlns="http://www.w3.org/2000/svg"
   xmlns:svg="http://www.w3.org/2000/svg"><defs
   id="defs1" />
<path
   d="m -114.68,145 h -25.92 c -1.326,0 -2.4,1.074 -2.4,2.4 v 25.92 c 0,1.326 1.074,2.4 2.4,2.4 h 25.92 c 1.326,0 2.4,-1.074 2.4,-2.4 V 147.4 c 0,-1.326 -1.074,-2.4 -2.4,-2.4 z m -17.256,21.786 h -2.994 v -9.582 h 2.994 z m -1.578,-10.782 h -0.024 c -1.086,0 -1.788,-0.732 -1.788,-1.662 0,-0.948 0.726,-1.662 1.83,-1.662 1.104,0 1.782,0.714 1.806,1.662 0.006,0.924 -0.696,1.662 -1.824,1.662 z m 13.554,10.782 h -3.396 v -4.956 c 0,-1.296 -0.528,-2.184 -1.698,-2.184 -0.894,0 -1.392,0.6 -1.62,1.176 -0.084,0.204 -0.072,0.492 -0.072,0.786 v 5.178 h -3.366 c 0,0 0.042,-8.784 0,-9.582 h 3.366 v 1.506 c 0.198,-0.66 1.272,-1.596 2.988,-1.596 2.13,0 3.798,1.38 3.798,4.344 z"
   id="path1"
   style="stroke-width:0.06" />
</svg>
