<?xml version="1.0" encoding="UTF-8" standalone="no"?>
<!-- Uploaded to: SVG Repo, www.svgrepo.com, Generator: SVG Repo Mixer Tools -->

<svg
   fill="#000000"
   height="48"
   width="48"
   version="1.1"
   id="Layer_1"
   viewBox="-143 145 30.72 30.72"
   xml:space="preserve"
   xmlns="http://www.w3.org/2000/svg"
   xmlns:svg="http://www.w3.org/2000/svg"><defs
   id="defs1" />
<path
   d="m -114.68,145 h -25.92 c -1.326,0 -2.4,1.074 -2.4,2.4 v 25.92 c 0,1.326 1.074,2.4 2.4,2.4 h 25.92 c 1.326,0 2.4,-1.074 2.4,-2.4 V 147.4 c 0,-1.326 -1.074,-2.4 -2.4,-2.4 z m -6.828,12.972 c 0.006,0.132 0.006,0.27 0.006,0.408 0,4.17 -3.174,8.982 -8.982,8.982 -1.782,0 -3.444,-0.522 -4.836,-1.416 0.246,0.03 0.498,0.042 0.756,0.042 1.476,0 2.838,-0.504 3.918,-1.35 -1.38,-0.024 -2.55,-0.936 -2.946,-2.19 0.192,0.036 0.39,0.054 0.594,0.054 0.288,0 0.57,-0.036 0.834,-0.114 -1.446,-0.288 -2.532,-1.566 -2.532,-3.096 v -0.036 c 0.426,0.234 0.912,0.378 1.428,0.396 -0.846,-0.564 -1.404,-1.536 -1.404,-2.628 0,-0.576 0.156,-1.122 0.426,-1.59 1.56,1.914 3.882,3.168 6.504,3.3 -0.054,-0.228 -0.084,-0.468 -0.084,-0.72 0,-1.74 1.416,-3.156 3.156,-3.156 0.906,0 1.728,0.384 2.304,0.996 0.72,-0.144 1.392,-0.402 2.004,-0.768 -0.234,0.738 -0.738,1.356 -1.386,1.746 0.636,-0.078 1.248,-0.246 1.812,-0.498 -0.42,0.636 -0.954,1.188 -1.572,1.638 z"
   id="path1"
   style="stroke-width:0.06" />
</svg>
